# xmcd CD database file
#
# Track frame offsets:
#	150
#	14517
#	34796
#	48941
#	65444
#	88847
#	104713
#	118765
#	134969
#	148509
#
# Disc length: 2182 seconds
#
# Revision: 1
# Processed by: cddbd v1.5PL3 Copyright (c) Steve Scherf et al.
# Submitted via: CDex 1.50beta10
#
DISCID=9808840a
DTITLE=Fred Heyden - The Way I See Australia
DYEAR=2003
DGENRE=Country
TTITLE0=G'Day G'Day
TTITLE1=Man From Snowy River
TTITLE2=Overlanders
TTITLE3=When The Rain Tumbles Down In July
TTITLE4=Raining On The Rock
TTITLE5=Aussie Bar-B-Q
TTITLE6=Mataranka Living
TTITLE7=Waltzing Matilda
TTITLE8=Whoa Bullocks Whoa
TTITLE9=Walk A Country Mile
EXTD=YEAR: 2003
EXTT0=
EXTT1=
EXTT2=
EXTT3=
EXTT4=
EXTT5=
EXTT6=
EXTT7=
EXTT8=
EXTT9=
PLAYORDER=
